# Tiled2Unity generated file. Do not modify by hand.
# Wavefront file for 'mapas_1_mesh_0003.obj'

# Vertices (Count = 220)
v -8 -1 0
v -9 -1 0
v -9 0 0
v -8 0 0
v -14 -1 0
v -15 -1 0
v -15 0 0
v -14 0 0
v -21 -1 0
v -22 -1 0
v -22 0 0
v -21 0 0
v -8 -2 0
v -9 -2 0
v -9 -1 0
v -8 -1 0
v -12 -2 0
v -13 -2 0
v -13 -1 0
v -12 -1 0
v -13 -2 0
v -14 -2 0
v -14 -1 0
v -13 -1 0
v -14 -2 0
v -15 -2 0
v -15 -1 0
v -14 -1 0
v -15 -2 0
v -16 -2 0
v -16 -1 0
v -15 -1 0
v -16 -2 0
v -17 -2 0
v -17 -1 0
v -16 -1 0
v -21 -2 0
v -22 -2 0
v -22 -1 0
v -21 -1 0
v -12 -8 0
v -13 -8 0
v -13 -7 0
v -12 -7 0
v -19 -8 0
v -20 -8 0
v -20 -7 0
v -19 -7 0
v -11 -9 0
v -12 -9 0
v -12 -8 0
v -11 -8 0
v -12 -9 0
v -13 -9 0
v -13 -8 0
v -12 -8 0
v -19 -9 0
v -20 -9 0
v -20 -8 0
v -19 -8 0
v -9 -10 0
v -10 -10 0
v -10 -9 0
v -9 -9 0
v -16 -13 0
v -17 -13 0
v -17 -12 0
v -16 -12 0
v -1 -14 0
v -2 -14 0
v -2 -13 0
v -1 -13 0
v -4 -14 0
v -5 -14 0
v -5 -13 0
v -4 -13 0
v -1 -15 0
v -2 -15 0
v -2 -14 0
v -1 -14 0
v -3 -15 0
v -4 -15 0
v -4 -14 0
v -3 -14 0
v -10 -15 0
v -11 -15 0
v -11 -14 0
v -10 -14 0
v -11 -15 0
v -12 -15 0
v -12 -14 0
v -11 -14 0
v -12 -15 0
v -13 -15 0
v -13 -14 0
v -12 -14 0
v -1 -16 0
v -2 -16 0
v -2 -15 0
v -1 -15 0
v -4 -16 0
v -5 -16 0
v -5 -15 0
v -4 -15 0
v -9 -16 0
v -10 -16 0
v -10 -15 0
v -9 -15 0
v -1 -17 0
v -2 -17 0
v -2 -16 0
v -1 -16 0
v -15 -17 0
v -16 -17 0
v -16 -16 0
v -15 -16 0
v -16 -17 0
v -17 -17 0
v -17 -16 0
v -16 -16 0
v -1 -18 0
v -2 -18 0
v -2 -17 0
v -1 -17 0
v -2 -18 0
v -3 -18 0
v -3 -17 0
v -2 -17 0
v -7 -18 0
v -8 -18 0
v -8 -17 0
v -7 -17 0
v -8 -18 0
v -9 -18 0
v -9 -17 0
v -8 -17 0
v -15 -18 0
v -16 -18 0
v -16 -17 0
v -15 -17 0
v -16 -18 0
v -17 -18 0
v -17 -17 0
v -16 -17 0
v -21 -18 0
v -22 -18 0
v -22 -17 0
v -21 -17 0
v -1 -19 0
v -2 -19 0
v -2 -18 0
v -1 -18 0
v -2 -19 0
v -3 -19 0
v -3 -18 0
v -2 -18 0
v -7 -19 0
v -8 -19 0
v -8 -18 0
v -7 -18 0
v -15 -19 0
v -16 -19 0
v -16 -18 0
v -15 -18 0
v -16 -19 0
v -17 -19 0
v -17 -18 0
v -16 -18 0
v -21 -19 0
v -22 -19 0
v -22 -18 0
v -21 -18 0
v -1 -20 0
v -2 -20 0
v -2 -19 0
v -1 -19 0
v -2 -20 0
v -3 -20 0
v -3 -19 0
v -2 -19 0
v -15 -20 0
v -16 -20 0
v -16 -19 0
v -15 -19 0
v -16 -20 0
v -17 -20 0
v -17 -19 0
v -16 -19 0
v -21 -20 0
v -22 -20 0
v -22 -19 0
v -21 -19 0
v -1 -21 0
v -2 -21 0
v -2 -20 0
v -1 -20 0
v -2 -21 0
v -3 -21 0
v -3 -20 0
v -2 -20 0
v -8 -21 0
v -9 -21 0
v -9 -20 0
v -8 -20 0
v -21 -21 0
v -22 -21 0
v -22 -20 0
v -21 -20 0
v -1 -22 0
v -2 -22 0
v -2 -21 0
v -1 -21 0
v -8 -22 0
v -9 -22 0
v -9 -21 0
v -8 -21 0
v -21 -22 0
v -22 -22 0
v -22 -21 0
v -21 -21 0

# Texture cooridinates (Count = 32)
vt 0.5 0.25
vt 0.55 0.25
vt 0.55 0.2916667
vt 0.5 0.2916667
vt 0.5 0.2083333
vt 0.55 0.2083333
vt 0.9 0.2916667
vt 0.95 0.2916667
vt 0.95 0.3333333
vt 0.9 0.3333333
vt 0.7 0.625
vt 0.75 0.625
vt 0.75 0.6666667
vt 0.7 0.6666667
vt 0.7 0.5833333
vt 0.75 0.5833333
vt 0.55 0.3333333
vt 0.6 0.3333333
vt 0.6 0.375
vt 0.55 0.375
vt 0.65 0.3333333
vt 0.65 0.375
vt 0.6 0.2916667
vt 0.65 0.2916667
vt 0.8 0.625
vt 0.85 0.625
vt 0.85 0.6666667
vt 0.8 0.6666667
vt 0.6 0.25
vt 0.65 0.25
vt 0.6 0.2083333
vt 0.65 0.2083333

# Normal
vn 0 0 -1

# Mesh description
g mapas_1_mesh_0003

# Faces
f 1/1/1 2/2/1 3/3/1 4/4/1
f 5/1/1 6/2/1 7/3/1 8/4/1
f 9/1/1 10/2/1 11/3/1 12/4/1
f 13/5/1 14/6/1 15/2/1 16/1/1
f 17/7/1 18/8/1 19/9/1 20/10/1
f 21/7/1 22/8/1 23/9/1 24/10/1
f 25/5/1 26/6/1 27/2/1 28/1/1
f 29/11/1 30/12/1 31/13/1 32/14/1
f 33/11/1 34/12/1 35/13/1 36/14/1
f 37/5/1 38/6/1 39/2/1 40/1/1
f 41/7/1 42/8/1 43/9/1 44/10/1
f 45/7/1 46/8/1 47/9/1 48/10/1
f 49/7/1 50/8/1 51/9/1 52/10/1
f 53/7/1 54/8/1 55/9/1 56/10/1
f 57/7/1 58/8/1 59/9/1 60/10/1
f 61/7/1 62/8/1 63/9/1 64/10/1
f 65/7/1 66/8/1 67/9/1 68/10/1
f 69/11/1 70/12/1 71/13/1 72/14/1
f 73/7/1 74/8/1 75/9/1 76/10/1
f 77/15/1 78/16/1 79/12/1 80/11/1
f 81/7/1 82/8/1 83/9/1 84/10/1
f 85/7/1 86/8/1 87/9/1 88/10/1
f 89/7/1 90/8/1 91/9/1 92/10/1
f 93/7/1 94/8/1 95/9/1 96/10/1
f 97/15/1 98/16/1 99/12/1 100/11/1
f 101/7/1 102/8/1 103/9/1 104/10/1
f 105/7/1 106/8/1 107/9/1 108/10/1
f 109/11/1 110/12/1 111/13/1 112/14/1
f 113/17/1 114/18/1 115/19/1 116/20/1
f 117/18/1 118/21/1 119/22/1 120/19/1
f 121/17/1 122/18/1 123/19/1 124/20/1
f 125/18/1 126/21/1 127/22/1 128/19/1
f 129/7/1 130/8/1 131/9/1 132/10/1
f 133/7/1 134/8/1 135/9/1 136/10/1
f 137/3/1 138/23/1 139/18/1 140/17/1
f 141/23/1 142/24/1 143/21/1 144/18/1
f 145/25/1 146/26/1 147/27/1 148/28/1
f 149/3/1 150/23/1 151/18/1 152/17/1
f 153/23/1 154/24/1 155/21/1 156/18/1
f 157/7/1 158/8/1 159/9/1 160/10/1
f 161/2/1 162/29/1 163/23/1 164/3/1
f 165/29/1 166/30/1 167/24/1 168/23/1
f 169/25/1 170/26/1 171/27/1 172/28/1
f 173/2/1 174/29/1 175/23/1 176/3/1
f 177/29/1 178/30/1 179/24/1 180/23/1
f 181/6/1 182/31/1 183/29/1 184/2/1
f 185/31/1 186/32/1 187/30/1 188/29/1
f 189/25/1 190/26/1 191/27/1 192/28/1
f 193/6/1 194/31/1 195/29/1 196/2/1
f 197/31/1 198/32/1 199/30/1 200/29/1
f 201/1/1 202/2/1 203/3/1 204/4/1
f 205/25/1 206/26/1 207/27/1 208/28/1
f 209/5/1 210/6/1 211/2/1 212/1/1
f 213/5/1 214/6/1 215/2/1 216/1/1
f 217/5/1 218/6/1 219/2/1 220/1/1

