# Tiled2Unity generated file. Do not modify by hand.
# Wavefront file for 'mapas_1_mesh_0004.obj'

# Vertices (Count = 64)
v -17 -1 0
v -18 -1 0
v -18 0 0
v -17 0 0
v -18 -1 0
v -19 -1 0
v -19 0 0
v -18 0 0
v -19 -1 0
v -20 -1 0
v -20 0 0
v -19 0 0
v -20 -1 0
v -21 -1 0
v -21 0 0
v -20 0 0
v -17 -2 0
v -18 -2 0
v -18 -1 0
v -17 -1 0
v -18 -2 0
v -19 -2 0
v -19 -1 0
v -18 -1 0
v -19 -2 0
v -20 -2 0
v -20 -1 0
v -19 -1 0
v -20 -2 0
v -21 -2 0
v -21 -1 0
v -20 -1 0
v -17 -3 0
v -18 -3 0
v -18 -2 0
v -17 -2 0
v -18 -3 0
v -19 -3 0
v -19 -2 0
v -18 -2 0
v -19 -3 0
v -20 -3 0
v -20 -2 0
v -19 -2 0
v -20 -3 0
v -21 -3 0
v -21 -2 0
v -20 -2 0
v -4 -5 0
v -5 -5 0
v -5 -4 0
v -4 -4 0
v -2 -6 0
v -3 -6 0
v -3 -5 0
v -2 -5 0
v -4 -6 0
v -5 -6 0
v -5 -5 0
v -4 -5 0
v -2 -7 0
v -3 -7 0
v -3 -6 0
v -2 -6 0

# Texture cooridinates (Count = 30)
vt 0.5625 0.5625
vt 0.625 0.5625
vt 0.625 0.625
vt 0.5625 0.625
vt 0.6875 0.5625
vt 0.6875 0.625
vt 0.75 0.5625
vt 0.8125 0.5625
vt 0.8125 0.625
vt 0.75 0.625
vt 0.875 0.5625
vt 0.875 0.625
vt 0.5625 0.5
vt 0.625 0.5
vt 0.6875 0.5
vt 0.75 0.5
vt 0.8125 0.5
vt 0.875 0.5
vt 0.5625 0.4375
vt 0.625 0.4375
vt 0.6875 0.4375
vt 0.75 0.4375
vt 0.8125 0.4375
vt 0.875 0.4375
vt 0 0.0625
vt 0.0625 0.0625
vt 0.0625 0.125
vt 0 0.125
vt 0 0
vt 0.0625 0

# Normal
vn 0 0 -1

# Mesh description
g mapas_1_mesh_0004

# Faces
f 1/1/1 2/2/1 3/3/1 4/4/1
f 5/2/1 6/5/1 7/6/1 8/3/1
f 9/7/1 10/8/1 11/9/1 12/10/1
f 13/8/1 14/11/1 15/12/1 16/9/1
f 17/13/1 18/14/1 19/2/1 20/1/1
f 21/14/1 22/15/1 23/5/1 24/2/1
f 25/16/1 26/17/1 27/8/1 28/7/1
f 29/17/1 30/18/1 31/11/1 32/8/1
f 33/19/1 34/20/1 35/14/1 36/13/1
f 37/20/1 38/21/1 39/15/1 40/14/1
f 41/22/1 42/23/1 43/17/1 44/16/1
f 45/23/1 46/24/1 47/18/1 48/17/1
f 49/25/1 50/26/1 51/27/1 52/28/1
f 53/25/1 54/26/1 55/27/1 56/28/1
f 57/29/1 58/30/1 59/26/1 60/25/1
f 61/29/1 62/30/1 63/26/1 64/25/1

